<svg width="24" height="24" viewBox="0 0 24 24" fill="none" xmlns="http://www.w3.org/2000/svg">
<path d="M19.66 3.99001C17.02 2.19001 13.76 3.03001 12 5.09001C10.24 3.03001 6.98003 2.18001 4.34003 3.99001C2.94003 4.95001 2.06003 6.57001 2.00003 8.28001C1.86003 12.16 5.30003 15.27 10.55 20.04L10.65 20.13C11.41 20.82 12.58 20.82 13.34 20.12L13.45 20.02C18.7 15.26 22.13 12.15 22 8.27001C21.94 6.57001 21.06 4.95001 19.66 3.99001V3.99001ZM12.1 18.55L12 18.65L11.9 18.55C7.14003 14.24 4.00003 11.39 4.00003 8.50001C4.00003 6.50001 5.50003 5.00001 7.50003 5.00001C9.04003 5.00001 10.54 5.99001 11.07 7.36001H12.94C13.46 5.99001 14.96 5.00001 16.5 5.00001C18.5 5.00001 20 6.50001 20 8.50001C20 11.39 16.86 14.24 12.1 18.55Z" fill="white"/>
</svg>
